<svg width="16" height="16" viewBox="0 0 16 16" fill="none" xmlns="http://www.w3.org/2000/svg">
<g id="clock">
<g id="icon_vector">
<path d="M8.53038 7.46666H10.1304C10.2718 7.46666 10.4075 7.52285 10.5075 7.62287C10.6075 7.72289 10.6637 7.85855 10.6637 8C10.6637 8.14144 10.6075 8.2771 10.5075 8.37712C10.4075 8.47714 10.2718 8.53333 10.1304 8.53333H7.99705C7.8556 8.53333 7.71994 8.47714 7.61992 8.37712C7.5199 8.2771 7.46371 8.14144 7.46371 8V5.86666C7.46371 5.72521 7.5199 5.58956 7.61992 5.48954C7.71994 5.38952 7.8556 5.33333 7.99705 5.33333C8.1385 5.33333 8.27415 5.38952 8.37417 5.48954C8.47419 5.58956 8.53038 5.72521 8.53038 5.86666V7.46666Z" fill="#0064F4"/>
<path fill-rule="evenodd" clip-rule="evenodd" d="M5.0368 3.56545C5.91386 2.97942 6.94501 2.66663 7.99984 2.66663C8.70022 2.66663 9.39375 2.80458 10.0408 3.0726C10.6879 3.34063 11.2758 3.73348 11.7711 4.22872C12.2663 4.72397 12.6592 5.31191 12.9272 5.95898C13.1952 6.60605 13.3332 7.29957 13.3332 7.99996C13.3332 9.05479 13.0204 10.0859 12.4343 10.963C11.8483 11.8401 11.0154 12.5236 10.0408 12.9273C9.06628 13.331 7.99392 13.4366 6.95936 13.2308C5.92479 13.025 4.97448 12.5171 4.2286 11.7712C3.48272 11.0253 2.97477 10.075 2.76898 9.04044C2.5632 8.00587 2.66881 6.93352 3.07248 5.95898C3.47615 4.98444 4.15974 4.15149 5.0368 3.56545ZM5.62941 11.5476C6.33106 12.0164 7.15597 12.2666 7.99984 12.2666C9.13143 12.2666 10.2167 11.8171 11.0168 11.0169C11.817 10.2168 12.2665 9.13155 12.2665 7.99996C12.2665 7.15609 12.0163 6.33117 11.5474 5.62953C11.0786 4.92788 10.4123 4.38101 9.63262 4.05807C8.85299 3.73514 7.99511 3.65064 7.16745 3.81528C6.3398 3.97991 5.57955 4.38627 4.98285 4.98297C4.38615 5.57967 3.97979 6.33992 3.81516 7.16757C3.65053 7.99522 3.73502 8.85311 4.05795 9.63274C4.38089 10.4124 4.92776 11.0787 5.62941 11.5476Z" fill="#0064F4"/>
</g>
</g>
</svg>
