<svg width="20" height="20" viewBox="0 0 20 20" fill="none" xmlns="http://www.w3.org/2000/svg">
<g id="cog">
<g id="icon_vector">
<path d="M7.17491 18.3333C6.76826 18.3309 6.37342 18.1964 6.04991 17.95L4.32491 16.6666C3.92683 16.3563 3.6627 15.9052 3.58676 15.4062C3.51083 14.9072 3.62884 14.398 3.91657 13.9833C4.06881 13.7585 4.16557 13.5008 4.19888 13.2314C4.2322 12.9619 4.20114 12.6884 4.10824 12.4333L4.05824 12.3C3.99356 12.069 3.87533 11.8566 3.71316 11.68C3.551 11.5034 3.34946 11.3674 3.12491 11.2833H2.99157C2.5048 11.1196 2.10225 10.7705 1.87133 10.3118C1.64041 9.85308 1.59978 9.32179 1.75824 8.83329L2.44157 6.66663C2.50448 6.41559 2.62029 6.1809 2.78125 5.97826C2.94222 5.77561 3.14462 5.6097 3.37491 5.49163C3.58937 5.38113 3.82402 5.31529 4.06466 5.2981C4.3053 5.28091 4.54692 5.31273 4.77491 5.39163C5.02314 5.47517 5.28803 5.49682 5.54654 5.45471C5.80505 5.41259 6.04936 5.30798 6.25824 5.14996L6.36657 5.06663C6.55565 4.91575 6.70847 4.72438 6.81375 4.5066C6.91904 4.28882 6.97411 4.05019 6.97491 3.80829V3.60829C6.97267 3.0984 7.17195 2.60827 7.52937 2.24461C7.88678 1.88095 8.37339 1.67321 8.88324 1.66663H11.0082C11.2563 1.66729 11.5018 1.71696 11.7306 1.81278C11.9594 1.90859 12.1671 2.04867 12.3416 2.22496C12.7085 2.59812 12.9123 3.10165 12.9082 3.62496V3.85829C12.904 4.08809 12.9538 4.31566 13.0537 4.52265C13.1536 4.72965 13.3007 4.91027 13.4832 5.04996L13.5749 5.11663C13.7619 5.25688 13.9801 5.34983 14.2108 5.38755C14.4415 5.42528 14.6779 5.40666 14.8999 5.33329L15.1832 5.24163C15.4233 5.16205 15.6769 5.13164 15.929 5.15221C16.181 5.17277 16.4264 5.24389 16.6504 5.36133C16.8743 5.47876 17.0724 5.6401 17.2327 5.83573C17.3929 6.03135 17.5122 6.25725 17.5832 6.49996L18.2416 8.59996C18.3939 9.08528 18.3523 9.61076 18.1254 10.066C17.8985 10.5213 17.5041 10.871 17.0249 11.0416L16.8582 11.1C16.6131 11.1802 16.3914 11.3195 16.2127 11.5055C16.034 11.6915 15.9037 11.9185 15.8332 12.1666C15.7669 12.3973 15.7512 12.6396 15.7871 12.8769C15.8231 13.1142 15.9099 13.341 16.0416 13.5416L16.2582 13.8583C16.5456 14.2753 16.6625 14.7865 16.585 15.287C16.5075 15.7874 16.2416 16.2393 15.8416 16.55L14.1666 17.8416C13.9642 17.9964 13.7323 18.1081 13.4852 18.1698C13.238 18.2316 12.9808 18.2421 12.7295 18.2007C12.4781 18.1594 12.2378 18.067 12.0235 17.9293C11.8092 17.7915 11.6253 17.6114 11.4832 17.4L11.3832 17.2583C11.2468 17.0532 11.0605 16.886 10.8419 16.7723C10.6234 16.6587 10.3795 16.6022 10.1332 16.6083C9.89822 16.6144 9.66792 16.6756 9.46093 16.7871C9.25393 16.8985 9.07603 17.0571 8.94158 17.25L8.74991 17.525C8.60778 17.7379 8.42354 17.9195 8.20856 18.0585C7.99358 18.1975 7.75241 18.291 7.49991 18.3333C7.39183 18.3439 7.28298 18.3439 7.17491 18.3333ZM3.66657 9.68329C4.13715 9.85109 4.56176 10.127 4.90624 10.4889C5.25072 10.8507 5.50544 11.2884 5.64991 11.7666V11.8666C5.82985 12.3638 5.88894 12.8967 5.82228 13.4212C5.75563 13.9458 5.56515 14.4469 5.26657 14.8833C5.21387 14.9415 5.18469 15.0173 5.18469 15.0958C5.18469 15.1743 5.21387 15.2501 5.26657 15.3083L7.05824 16.6666C7.08162 16.685 7.10865 16.6981 7.13753 16.7052C7.1664 16.7122 7.19645 16.713 7.22566 16.7075C7.25486 16.702 7.28255 16.6903 7.30685 16.6731C7.33116 16.656 7.35152 16.6339 7.36657 16.6083L7.55824 16.3333C7.84732 15.9156 8.23336 15.5742 8.68329 15.3384C9.13322 15.1027 9.63361 14.9795 10.1416 14.9795C10.6495 14.9795 11.1499 15.1027 11.5999 15.3384C12.0498 15.5742 12.4358 15.9156 12.7249 16.3333L12.8249 16.4833C12.8607 16.5341 12.9142 16.5698 12.9749 16.5833C13.0027 16.5874 13.0311 16.5858 13.0583 16.5787C13.0856 16.5715 13.111 16.5589 13.1332 16.5416L14.8499 15.2416C14.91 15.1939 14.9495 15.125 14.9604 15.0491C14.9712 14.9731 14.9526 14.8959 14.9082 14.8333L14.6916 14.5166C14.4093 14.105 14.223 13.6351 14.1466 13.1419C14.0701 12.6486 14.1054 12.1444 14.2499 11.6666C14.3964 11.1644 14.6613 10.7048 15.0224 10.3263C15.3835 9.94777 15.8302 9.66153 16.3249 9.49163L16.4916 9.43329C16.561 9.40547 16.6167 9.35129 16.6463 9.2826C16.676 9.2139 16.6773 9.13627 16.6499 9.06663L15.9999 6.99163C15.9843 6.95532 15.9615 6.92256 15.9328 6.89535C15.9042 6.86813 15.8703 6.84702 15.8332 6.83329C15.8087 6.82085 15.7816 6.81436 15.7541 6.81436C15.7266 6.81436 15.6994 6.82085 15.6749 6.83329L15.3916 6.92496C14.9123 7.08314 14.4017 7.12256 13.9039 7.03982C13.406 6.95708 12.9356 6.75466 12.5332 6.44996L12.4999 6.37496C12.1138 6.08256 11.8007 5.70464 11.5853 5.27087C11.3699 4.83709 11.2579 4.35929 11.2582 3.87496V3.61663C11.2598 3.53631 11.2299 3.45857 11.1749 3.39996C11.127 3.35663 11.0645 3.33285 10.9999 3.33329H8.88324C8.84929 3.33541 8.8161 3.34422 8.78556 3.3592C8.75502 3.37418 8.72774 3.39504 8.70529 3.42059C8.68283 3.44615 8.66565 3.47588 8.65471 3.50809C8.64378 3.5403 8.63932 3.57435 8.64158 3.60829V3.81663C8.64163 4.31416 8.52745 4.80506 8.30784 5.2515C8.08823 5.69794 7.76906 6.088 7.37491 6.39163L7.26657 6.47496C6.84135 6.79871 6.34301 7.0129 5.81549 7.09864C5.28796 7.18438 4.74745 7.13905 4.24157 6.96663C4.20372 6.95392 4.16276 6.95392 4.12491 6.96663C4.07788 6.9952 4.04246 7.03947 4.02491 7.09163L3.33324 9.26663C3.30913 9.3407 3.31478 9.42125 3.349 9.49124C3.38321 9.56122 3.44331 9.61515 3.51657 9.64162L3.66657 9.68329Z" fill="#E6EBEF"/>
<path d="M9.99995 12.9166C9.42309 12.9166 8.85918 12.7456 8.37954 12.4251C7.8999 12.1046 7.52606 11.6491 7.3053 11.1161C7.08455 10.5832 7.02679 9.99672 7.13933 9.43094C7.25187 8.86517 7.52966 8.34547 7.93756 7.93756C8.34546 7.52966 8.86516 7.25187 9.43094 7.13933C9.99672 7.02679 10.5832 7.08455 11.1161 7.30531C11.6491 7.52606 12.1046 7.8999 12.4251 8.37954C12.7456 8.85919 12.9166 9.4231 12.9166 9.99996C12.9166 10.7735 12.6093 11.5154 12.0623 12.0624C11.5154 12.6093 10.7735 12.9166 9.99995 12.9166ZM9.99995 8.74996C9.75273 8.74996 9.51105 8.82327 9.30549 8.96062C9.09993 9.09797 8.93971 9.2932 8.8451 9.5216C8.75049 9.75001 8.72574 10.0013 8.77397 10.2438C8.8222 10.4863 8.94126 10.709 9.11607 10.8838C9.29089 11.0587 9.51361 11.1777 9.75609 11.2259C9.99857 11.2742 10.2499 11.2494 10.4783 11.1548C10.7067 11.0602 10.9019 10.9 11.0393 10.6944C11.1766 10.4889 11.25 10.2472 11.25 9.99996C11.25 9.66844 11.1183 9.3505 10.8838 9.11607C10.6494 8.88165 10.3315 8.74996 9.99995 8.74996Z" fill="#E6EBEF"/>
</g>
</g>
</svg>
