<svg width="16" height="16" viewBox="0 0 16 16" fill="none" xmlns="http://www.w3.org/2000/svg">
<g id="locations">
<g id="icon_vector">
<path fill-rule="evenodd" clip-rule="evenodd" d="M9.60906 6.66561C9.60906 7.55409 8.88881 8.27434 8.00033 8.27434C7.11186 8.27434 6.39161 7.55409 6.39161 6.66561C6.39161 5.77714 7.11186 5.05689 8.00033 5.05689C8.88881 5.05689 9.60906 5.77714 9.60906 6.66561ZM8.49794 6.66561C8.49794 6.94044 8.27516 7.16322 8.00033 7.16322C7.72551 7.16322 7.50272 6.94044 7.50272 6.66561C7.50272 6.39079 7.72551 6.168 8.00033 6.168C8.27516 6.168 8.49794 6.39079 8.49794 6.66561Z" fill="#0064F4"/>
<path fill-rule="evenodd" clip-rule="evenodd" d="M6.5183 12.6648C7.13673 13.8521 8.86834 13.8508 9.48677 12.6626L11.6643 8.47017C11.9833 7.89268 12.1655 7.23135 12.1655 6.52855C12.1655 4.27298 10.3005 2.44446 7.99928 2.44446C5.69806 2.44446 3.83301 4.27298 3.83301 6.52855C3.83301 7.18452 3.98924 7.80438 4.26916 8.35363L6.5183 12.6648ZM10.6917 7.93294L10.6848 7.9454L8.50099 12.15C8.29659 12.5421 7.70604 12.5398 7.50374 12.1515L5.25693 7.84478C5.0566 7.45007 4.94412 7.00429 4.94412 6.52855C4.94412 4.90735 6.29079 3.55557 7.99928 3.55557C9.70777 3.55557 11.0544 4.90735 11.0544 6.52855C11.0544 7.03666 10.9232 7.51389 10.6917 7.93294Z" fill="#0064F4"/>
</g>
</g>
</svg>
