<svg width="16" height="16" viewBox="0 0 16 16" fill="none" xmlns="http://www.w3.org/2000/svg">
<g id="payments">
<g id="icon_vector">
<path fill-rule="evenodd" clip-rule="evenodd" d="M8.00098 9.5C8.8294 9.5 9.50098 8.82843 9.50098 8C9.50098 7.17157 8.8294 6.5 8.00098 6.5C7.17255 6.5 6.50098 7.17157 6.50098 8C6.50098 8.82843 7.17255 9.5 8.00098 9.5ZM7.50098 8C7.50098 7.72386 7.72483 7.5 8.00098 7.5C8.27712 7.5 8.50098 7.72386 8.50098 8C8.50098 8.27614 8.27712 8.5 8.00098 8.5C7.72483 8.5 7.50098 8.27614 7.50098 8Z" fill="#0064F4"/>
<path fill-rule="evenodd" clip-rule="evenodd" d="M11.501 4.5C12.3294 4.5 13.001 5.17157 13.001 6V10C13.001 10.8284 12.3294 11.5 11.501 11.5H4.50098C3.67255 11.5 3.00098 10.8284 3.00098 10V6C3.00098 5.17157 3.67255 4.5 4.50098 4.5H11.501ZM11.1585 5.5H11.501C11.7771 5.5 12.001 5.72386 12.001 6V6.34244C11.9241 6.3749 11.8396 6.39286 11.751 6.39286C11.3959 6.39286 11.1081 6.10504 11.1081 5.75C11.1081 5.66133 11.1261 5.57685 11.1585 5.5ZM11.751 7.25C11.8362 7.25 11.9197 7.2429 12.001 7.22926V8.77074C11.9197 8.7571 11.8362 8.75 11.751 8.75C10.9225 8.75 10.251 9.42157 10.251 10.25C10.251 10.3352 10.2581 10.4187 10.2717 10.5H5.73024C5.74388 10.4187 5.75098 10.3352 5.75098 10.25C5.75098 9.42157 5.0794 8.75 4.25098 8.75C4.1658 8.75 4.08228 8.7571 4.00098 8.77074V7.22926C4.08228 7.2429 4.1658 7.25 4.25098 7.25C5.0794 7.25 5.75098 6.57843 5.75098 5.75C5.75098 5.66482 5.74388 5.5813 5.73024 5.5H10.2717C10.2581 5.5813 10.251 5.66482 10.251 5.75C10.251 6.57843 10.9225 7.25 11.751 7.25ZM12.001 10V9.65757C11.9241 9.6251 11.8396 9.60714 11.751 9.60714C11.3959 9.60714 11.1081 9.89496 11.1081 10.25C11.1081 10.3387 11.1261 10.4232 11.1585 10.5H11.501C11.7771 10.5 12.001 10.2761 12.001 10ZM4.89383 10.25C4.89383 10.3387 4.87588 10.4232 4.84341 10.5H4.50098C4.22483 10.5 4.00098 10.2761 4.00098 10V9.65757C4.07783 9.6251 4.1623 9.60714 4.25098 9.60714C4.60602 9.60714 4.89383 9.89496 4.89383 10.25ZM4.00098 6.34244V6C4.00098 5.72386 4.22483 5.5 4.50098 5.5H4.84341C4.87588 5.57685 4.89383 5.66133 4.89383 5.75C4.89383 6.10504 4.60602 6.39286 4.25098 6.39286C4.1623 6.39286 4.07783 6.3749 4.00098 6.34244Z" fill="#0064F4"/>
</g>
</g>
</svg>
