<svg width="20" height="20" viewBox="0 0 20 20" fill="none" xmlns="http://www.w3.org/2000/svg">
<g id="plane">
<path id="icon_vector" d="M18.3281 2.52233C18.3194 2.44577 18.3026 2.37035 18.2781 2.29733V2.22233C18.2381 2.12958 18.1817 2.04487 18.1114 1.97233C18.0407 1.90588 17.9589 1.8523 17.8698 1.81399H17.7948C17.718 1.75534 17.6301 1.71282 17.5364 1.68899H17.4948C17.4119 1.67642 17.3276 1.67642 17.2448 1.68899L2.24476 6.68899C2.07803 6.74379 1.93287 6.84983 1.82995 6.99199C1.72704 7.13414 1.67163 7.30516 1.67163 7.48066C1.67163 7.65616 1.72704 7.82718 1.82995 7.96933C1.93287 8.11149 2.07803 8.21753 2.24476 8.27233L9.35309 10.639L11.7198 17.7473C11.7746 17.9141 11.8806 18.0592 12.0227 18.1621C12.1649 18.265 12.3359 18.3205 12.5114 18.3205C12.6869 18.3205 12.8579 18.265 13.0001 18.1621C13.1423 18.0592 13.2483 17.9141 13.3031 17.7473L18.3031 2.74733C18.3216 2.67381 18.33 2.59812 18.3281 2.52233ZM14.4114 4.43066L9.76976 9.07233L5.12809 7.52233L14.4114 4.43066ZM12.4948 14.889L10.9448 10.2473L15.5864 5.60566L12.4948 14.889Z" fill="#0064F4"/>
</g>
</svg>
